name E:\Dropbox\SEL\BOX\Experiment\240124_SUB1_PJH\c3d\XYZ\UpDown_TrcMot\15_10_trial1_D1_ExtLoadAPP1.mot
datacolumns 37
datarows 10
range 9.353 9.362
endheader

time	    ground_force1_vx	    ground_force1_vy	    ground_force1_vz	    ground_force1_px	    ground_force1_py	    ground_force1_pz	    ground_torque1_x	    ground_torque1_y	    ground_torque1_z	    ground_force2_vx	    ground_force2_vy	    ground_force2_vz	    ground_force2_px	    ground_force2_py	    ground_force2_pz	    ground_torque2_x	    ground_torque2_y	    ground_torque2_z	      hand_force3_vx	      hand_force3_vy	      hand_force3_vz	      hand_force3_px	      hand_force3_py	      hand_force3_pz	      hand_torque3_x	      hand_torque3_y	      hand_torque3_z	      hand_force4_vx	      hand_force4_vy	      hand_force4_vz	      hand_force4_px	      hand_force4_py	      hand_force4_pz	      hand_torque4_x	      hand_torque4_y	      hand_torque4_z	
9.353	         52.83955227	        470.60745196	        -11.40043899	          0.22291799	          0.00000000	          0.27553772	          0.00000000	         -6.62826634	          0.00000000	        -45.77331049	        455.50804037	        -18.12951406	          0.57939189	          0.00000000	          0.25792572	          0.00000000	          3.35521359	          0.00000000	        -10.91320212	        -94.65331098	          3.80832793	          0.19872774	          0.52207924	          0.02879991	         -0.02071665	         -0.45241714	          0.02878559	          1.34095771	        -96.44896603	         -0.68681721	          0.59413521	          0.52207924	          0.02018125	          0.01297501	          0.28271361	         -0.01826023	
9.354	         52.90710872	        471.09060638	        -11.28189843	          0.22289422	          0.00000000	          0.27542767	          0.00000000	         -6.63987557	          0.00000000	        -45.82924292	        455.95996235	        -18.24332019	          0.57940362	          0.00000000	          0.25790265	          0.00000000	          3.36269998	          0.00000000	        -10.92527164	        -94.74296434	          3.78400123	          0.19867099	          0.52145101	          0.02856934	         -0.02077163	         -0.45437358	          0.02866592	          1.30812652	        -96.48696904	         -0.76178310	          0.59413263	          0.52145101	          0.01995298	          0.01287294	          0.28096616	         -0.01799954	
9.355	         52.97426904	        471.57787485	        -11.16069788	          0.22287051	          0.00000000	          0.27531651	          0.00000000	         -6.65155309	          0.00000000	        -45.88535255	        456.42268993	        -18.35272883	          0.57941506	          0.00000000	          0.25787941	          0.00000000	          3.37010691	          0.00000000	        -10.93619733	        -94.82891182	          3.75893972	          0.19861609	          0.52082515	          0.02833887	         -0.02082056	         -0.45624519	          0.02854139	          1.27595755	        -96.52109180	         -0.83801559	          0.59412828	          0.52082515	          0.01972317	          0.01276862	          0.27918988	         -0.01773938	
9.356	         53.04099790	        472.06902607	        -11.03705466	          0.22284687	          0.00000000	          0.27520428	          0.00000000	         -6.66328804	          0.00000000	        -45.94153795	        456.89591360	        -18.45769395	          0.57942620	          0.00000000	          0.25785595	          0.00000000	          3.37743504	          0.00000000	        -10.94587390	        -94.91082558	          3.73310062	          0.19856315	          0.52020162	          0.02810841	         -0.02086343	         -0.45803085	          0.02841207	          1.24452179	        -96.55111255	         -0.91537061	          0.59412217	          0.52020162	          0.01949197	          0.01266215	          0.27738647	         -0.01747984	
9.357	         53.10725161	        472.56378221	        -10.91119830	          0.22282330	          0.00000000	          0.27509102	          0.00000000	         -6.67506940	          0.00000000	        -45.99770062	        457.37930842	        -18.55818120	          0.57943704	          0.00000000	          0.25783220	          0.00000000	          3.38468492	          0.00000000	        -10.95419849	        -94.98838133	          3.70644258	          0.19851228	          0.51958042	          0.02787782	         -0.02090021	         -0.45972957	          0.02827801	          1.21389035	        -96.57681194	         -0.99369935	          0.59411434	          0.51958042	          0.01925951	          0.01255366	          0.27555769	         -0.01722105	
9.358	         53.17297802	        473.06181863	        -10.78336980	          0.22279981	          0.00000000	          0.27497678	          0.00000000	         -6.68688594	          0.00000000	        -46.05374528	        457.87253519	        -18.65416803	          0.57944755	          0.00000000	          0.25780811	          0.00000000	          3.39185696	          0.00000000	        -10.96107116	        -95.06125988	          3.67892593	          0.19846360	          0.51896149	          0.02764701	         -0.02093092	         -0.46134050	          0.02813928	          1.18413395	        -96.59797439	         -1.07284909	          0.59410483	          0.51896149	          0.01902591	          0.01244327	          0.27370535	         -0.01696312	
9.359	         53.23811664	        473.56276388	        -10.65382074	          0.22277640	          0.00000000	          0.27486159	          0.00000000	         -6.69872632	          0.00000000	        -46.10958023	        458.37524159	        -18.74564372	          0.57945775	          0.00000000	          0.25778361	          0.00000000	          3.39895144	          0.00000000	        -10.96639543	        -95.12914863	          3.65051282	          0.19841721	          0.51834484	          0.02741585	         -0.02095555	         -0.46286290	          0.02799595	          1.15532248	        -96.61438944	         -1.15266399	          0.59409365	          0.51834484	          0.01879133	          0.01233110	          0.27183132	         -0.01670620	
9.36	         53.30259866	        474.06620007	        -10.52281240	          0.22275309	          0.00000000	          0.27474549	          0.00000000	         -6.71057907	          0.00000000	        -46.16511752	        458.88706330	        -18.83260943	          0.57946761	          0.00000000	          0.25775865	          0.00000000	          3.40596847	          0.00000000	        -10.97007882	        -95.19174305	          3.62116747	          0.19837318	          0.51773043	          0.02718424	         -0.02097412	         -0.46429621	          0.02784811	          1.12752446	        -96.62585305	         -1.23298581	          0.59408086	          0.51773043	          0.01855588	          0.01221727	          0.26993753	         -0.01645039	
9.361	         53.36634720	        474.57166347	        -10.39061479	          0.22272988	          0.00000000	          0.27462851	          0.00000000	         -6.72243263	          0.00000000	        -46.22027327	        459.40762493	        -18.91507819	          0.57947713	          0.00000000	          0.25773317	          0.00000000	          3.41290803	          0.00000000	        -10.97203333	        -95.24874814	          3.59085632	          0.19833161	          0.51711823	          0.02695206	         -0.02098666	         -0.46563998	          0.02769583	          1.10080668	        -96.63216891	         -1.31365482	          0.59406648	          0.51711823	          0.01831971	          0.01210192	          0.26802591	         -0.01619583	
9.362	         53.42927747	        475.07864552	        -10.25750566	          0.22270676	          0.00000000	          0.27451068	          0.00000000	         -6.73427538	          0.00000000	        -46.27496779	        459.93654105	        -18.99307488	          0.57948631	          0.00000000	          0.25770713	          0.00000000	          3.41976991	          0.00000000	        -10.97217591	        -95.29987982	          3.55954823	          0.19829258	          0.51650824	          0.02671919	         -0.02099318	         -0.46689393	          0.02753921	          1.07523370	        -96.63314968	         -1.39451052	          0.59405057	          0.51650824	          0.01808297	          0.01198516	          0.26609845	         -0.01594265	
